# xmcd
#
# Track frame offsets:
#	150
#	23858
#	40233
#	52790
#	71955
#	86440
#	96570
#	110083
#	131343
#	145668
#	160013
#	175043
#
# Disc length: 2527 seconds
#
# Revision: 1
# Processed by: cddbd v1.5.2PL0 Copyright (c) Steve Scherf et al.
# Submitted via: audiograbber 1.83.01
#
DISCID=9c09dd0c
DTITLE=Shunie Crampsey - How I Only Wish You Knew
DYEAR=1900
DGENRE=
TTITLE0=If I Had My Life To Live Over
TTITLE1=Mysterious Lady
TTITLE2=Hob Nail Boogie
TTITLE3=You Went
TTITLE4=Hard Times That Loving Can Bring
TTITLE5=Hey You
TTITLE6=Morning Sun And Memories
TTITLE7=How I Only Wish You Knew
TTITLE8=Monte Carlo
TTITLE9=The Way I Love You
TTITLE10=Welcome Home
TTITLE11=We Could Make It
EXTD=
EXTT0=
EXTT1=
EXTT2=
EXTT3=
EXTT4=
EXTT5=
EXTT6=
EXTT7=
EXTT8=
EXTT9=
EXTT10=
EXTT11=
PLAYORDER=
